<svg width="0" height="0" class="hidden">
  <symbol fill="none" xmlns="http://www.w3.org/2000/svg" viewBox="0 0 58 64" id="bell">
    <path fill-rule="evenodd" clip-rule="evenodd" d="M14.89 5.96437C18.7089 2.14545 23.8885 0 29.2892 0C34.69 0 39.8696 2.14545 43.6885 5.96437C47.5074 9.78329 49.6529 14.9629 49.6529 20.3636C49.6529 28.8369 51.7823 34.4549 54.0147 38.0425L54.049 38.0975C55.0885 39.7681 55.9103 41.0887 56.4642 42.0499C56.7418 42.5316 56.9947 42.9955 57.182 43.4079C57.2754 43.6137 57.38 43.866 57.4617 44.1404C57.5295 44.368 57.6587 44.8545 57.6102 45.4466C57.5777 45.8446 57.4966 46.5246 57.1063 47.2271C56.716 47.9295 56.1816 48.3577 55.8609 48.5956C55.1328 49.1357 54.2966 49.2592 54.0175 49.3004L54.0046 49.3023C53.5758 49.3659 53.0892 49.3974 52.5982 49.4165C51.623 49.4546 50.2727 49.4546 48.5935 49.4545H9.98493C8.30575 49.4546 6.95551 49.4546 5.98022 49.4165C5.4893 49.3974 5.00267 49.3659 4.57385 49.3023L4.56094 49.3004C4.28186 49.2592 3.44572 49.1357 2.71762 48.5956C2.39691 48.3577 1.86244 47.9295 1.47218 47.2271C1.08192 46.5246 1.00077 45.8446 0.968224 45.4466C0.919795 44.8545 1.04896 44.368 1.11676 44.1404C1.19848 43.866 1.30304 43.6137 1.39651 43.4079C1.58375 42.9955 1.83664 42.5316 2.11423 42.0499C2.66818 41.0888 3.4899 39.7682 4.52932 38.0978L4.56376 38.0425C6.79613 34.4549 8.9256 28.8369 8.9256 20.3636C8.9256 14.9629 11.071 9.78329 14.89 5.96437ZM29.2892 5.81818C25.4315 5.81818 21.7318 7.35065 19.004 10.0784C16.2762 12.8062 14.7438 16.5059 14.7438 20.3636C14.7438 29.8697 12.3378 36.5616 9.50367 41.1163C8.88447 42.1114 8.3677 42.9422 7.94548 43.6329C8.54642 43.6362 9.24555 43.6364 10.0568 43.6364H48.5217C49.3329 43.6364 50.0321 43.6362 50.633 43.6329C50.2108 42.9422 49.694 42.1114 49.0748 41.1163C46.2407 36.5616 43.8347 29.8697 43.8347 20.3636C43.8347 16.5059 42.3022 12.8062 39.5744 10.0784C36.8466 7.35065 33.1469 5.81818 29.2892 5.81818ZM19.4112 56.2568C20.4744 55.0522 22.3128 54.9376 23.5173 56.0008C25.0576 57.3602 27.0739 58.1818 29.2892 58.1818C31.5046 58.1818 33.5209 57.3602 35.0611 56.0008C36.2657 54.9376 38.1041 55.0522 39.1672 56.2568C40.2304 57.4613 40.1158 59.2997 38.9112 60.3629C36.3489 62.6245 32.9761 64 29.2892 64C25.6023 64 22.2296 62.6245 19.6672 60.3629C18.4627 59.2997 18.3481 57.4613 19.4112 56.2568Z" fill="currentcolor"></path>
  </symbol>
  <symbol fill="none" xmlns="http://www.w3.org/2000/svg" viewBox="0 0 65 38" id="chevron-down">
    <path fill-rule="evenodd" clip-rule="evenodd" d="M1.95979 2.05323C3.74504 0.267973 6.63951 0.267973 8.42477 2.05323L32.6209 26.2493L56.8169 2.05323C58.6022 0.267973 61.4967 0.267973 63.2819 2.05323C65.0672 3.83848 65.0672 6.73295 63.2819 8.5182L35.8533 35.9468C34.0681 37.732 31.1736 37.732 29.3884 35.9468L1.95979 8.5182C0.174536 6.73295 0.174536 3.83848 1.95979 2.05323Z" fill="currentcolor"></path>
  </symbol>
  <symbol fill="none" xmlns="http://www.w3.org/2000/svg" viewBox="0 0 62 64" id="gear">
    <path fill-rule="evenodd" clip-rule="evenodd" d="M20.9641 5.14216C21.4586 2.17485 24.0259 0 27.0342 0H35.5477C38.5559 0 41.1233 2.17485 41.6178 5.14216L42.3186 9.34663C42.3807 9.71911 42.6566 10.1518 43.1965 10.4506C43.4671 10.6004 43.7345 10.7551 43.9986 10.9146C44.5268 11.2336 45.0398 11.2566 45.3939 11.1239L49.3878 9.62772C52.2048 8.57236 55.3719 9.7083 56.8761 12.3135L61.1328 19.6864C62.6369 22.2917 62.0371 25.6024 59.7146 27.5144L56.4183 30.228C56.1265 30.4683 55.8907 30.9226 55.902 31.536C55.9049 31.6904 55.9063 31.845 55.9063 32C55.9063 32.1549 55.9049 32.3096 55.902 32.4639C55.8907 33.0774 56.1265 33.5317 56.4183 33.7719L59.7146 36.4856C62.0371 38.3975 62.6369 41.7083 61.1328 44.3135L56.8761 51.6864C55.3719 54.2917 52.2048 55.4276 49.3878 54.3722L45.394 52.876C45.0399 52.7434 44.5269 52.7664 43.9987 53.0854C43.7345 53.2449 43.4671 53.3996 43.1965 53.5494C42.6566 53.8482 42.3807 54.2809 42.3186 54.6534L41.6178 58.8578C41.1233 61.8252 38.5559 64 35.5477 64H27.0342C24.0259 64 21.4586 61.8251 20.9641 58.8578L20.2633 54.6534C20.2012 54.2809 19.9253 53.8482 19.3854 53.5494C19.1148 53.3996 18.8474 53.2449 18.5833 53.0854C18.0551 52.7664 17.5421 52.7434 17.188 52.8761L13.1941 54.3723C10.3771 55.4276 7.20996 54.2917 5.70584 51.6865L1.44908 44.3136C-0.0550369 41.7083 0.544778 38.3976 2.86727 36.4856L6.1636 33.772C6.45538 33.5318 6.69122 33.0774 6.67986 32.4639C6.677 32.3096 6.67556 32.155 6.67556 32C6.67556 31.8451 6.677 31.6904 6.67986 31.5361C6.69122 30.9226 6.45538 30.4683 6.1636 30.2281L2.86726 27.5144C0.544775 25.6025 -0.0550374 22.2917 1.44908 19.6865L5.70585 12.3136C7.20997 9.70835 10.3771 8.5724 13.1941 9.62777L17.1879 11.124C17.542 11.2566 18.055 11.2336 18.5832 10.9146C18.8474 10.7551 19.1148 10.6004 19.3854 10.4506C19.9253 10.1518 20.2012 9.71911 20.2633 9.34662L20.9641 5.14216ZM27.0342 4.92308C26.4325 4.92308 25.9191 5.35805 25.8202 5.95151L25.1194 10.156C24.7723 12.2388 23.4074 13.8513 21.7696 14.7579C21.5532 14.8776 21.3393 15.0014 21.128 15.129C19.5227 16.0984 17.4406 16.4759 15.4608 15.7341L11.467 14.2379C10.9036 14.0269 10.2702 14.2541 9.96936 14.7751L5.71259 22.148C5.41177 22.6691 5.53173 23.3312 5.99623 23.7136L9.29256 26.4273C10.9208 27.7677 11.6368 29.7542 11.6021 31.6273C11.5998 31.7512 11.5986 31.8754 11.5986 32C11.5986 32.1246 11.5998 32.2488 11.6021 32.3728C11.6368 34.2459 10.9208 36.2323 9.29256 37.5728L5.99623 40.2864C5.53173 40.6688 5.41177 41.331 5.71259 41.852L9.96935 49.2249C10.2702 49.746 10.9036 49.9732 11.467 49.7621L15.4608 48.2659C17.4407 47.5242 19.5227 47.9017 21.1281 48.8711C21.3394 48.9987 21.5532 49.1224 21.7696 49.2421C23.4074 50.1487 24.7723 51.7612 25.1194 53.844L25.8202 58.0485C25.9191 58.642 26.4325 59.0769 27.0342 59.0769H35.5477C36.1494 59.0769 36.6628 58.642 36.7617 58.0485L37.4625 53.844C37.8096 51.7612 39.1745 50.1487 40.8123 49.2421C41.0287 49.1224 41.2426 48.9986 41.4539 48.871C43.0592 47.9017 45.1412 47.5241 47.1211 48.2659L51.1149 49.7621C51.6783 49.9731 52.3117 49.7459 52.6125 49.2249L56.8693 41.852C57.1701 41.3309 57.0502 40.6688 56.5857 40.2864L53.2893 37.5727C51.6611 36.2323 50.9451 34.2458 50.9798 32.3727C50.9821 32.2488 50.9833 32.1246 50.9833 32C50.9833 31.8755 50.9821 31.7512 50.9798 31.6272C50.9451 29.7541 51.6611 27.7677 53.2893 26.4272L56.5857 23.7136C57.0502 23.3312 57.1701 22.669 56.8693 22.148L52.6125 14.7751C52.3117 14.254 51.6783 14.0268 51.1149 14.2379L47.1211 15.7341C45.1412 16.4758 43.0592 16.0983 41.4538 15.1289C41.2425 15.0013 41.0287 14.8776 40.8123 14.7579C39.1745 13.8513 37.8096 12.2388 37.4625 10.156L36.7617 5.95151C36.6628 5.35805 36.1494 4.92308 35.5477 4.92308H27.0342ZM31.2902 24.6151C27.2118 24.6151 23.9056 27.9213 23.9056 31.9997C23.9056 36.0782 27.2118 39.3844 31.2902 39.3844C35.3686 39.3844 38.6748 36.0782 38.6748 31.9997C38.6748 27.9213 35.3686 24.6151 31.2902 24.6151ZM18.9825 31.9997C18.9825 25.2024 24.4928 19.692 31.2902 19.692C38.0875 19.692 43.5979 25.2024 43.5979 31.9997C43.5979 38.7971 38.0875 44.3074 31.2902 44.3074C24.4928 44.3074 18.9825 38.7971 18.9825 31.9997Z" fill="currentcolor"></path>
  </symbol>
  <symbol fill="none" xmlns="http://www.w3.org/2000/svg" viewBox="0 0 62 64" id="home">
    <path fill-rule="evenodd" clip-rule="evenodd" d="M29.2554 0.214567C30.312 -0.0715223 31.4257 -0.0715223 32.4824 0.214567C33.709 0.546682 34.7417 1.35747 35.5659 2.00457C35.6446 2.06635 35.7214 2.12664 35.7962 2.18487L56.7322 18.4684C56.8128 18.5311 56.8927 18.5931 56.9721 18.6547C58.1347 19.5569 59.1589 20.3518 59.9221 21.3837C60.592 22.2893 61.091 23.3096 61.3946 24.3943C61.7406 25.6303 61.7391 26.9268 61.7376 28.3984C61.7375 28.4988 61.7373 28.6001 61.7373 28.7021V51.1543C61.7374 52.7815 61.7374 54.1852 61.643 55.3415C61.5433 56.5618 61.3231 57.7757 60.728 58.9437C59.8402 60.6861 58.4235 62.1028 56.681 62.9907C55.513 63.5858 54.2992 63.8059 53.0788 63.9056C51.9226 64.0001 50.5188 64.0001 48.8916 64H12.8461C11.2189 64.0001 9.81518 64.0001 8.65895 63.9056C7.43858 63.8059 6.22477 63.5858 5.05677 62.9907C3.31429 62.1028 1.89761 60.6861 1.00977 58.9437C0.414643 57.7757 0.194502 56.5618 0.0947938 55.3415C0.00032457 54.1852 0.000372405 52.7815 0.000427602 51.1542L0.000430546 28.7021C0.000430546 28.6001 0.000321256 28.4988 0.000212701 28.3984C-0.00137771 26.9268 -0.00277865 25.6303 0.343197 24.3943C0.646823 23.3096 1.1458 22.2893 1.81562 21.3837C2.57887 20.3518 3.60313 19.5569 4.76574 18.6546C4.84506 18.5931 4.92503 18.531 5.00559 18.4684L25.9415 2.18487C26.0164 2.12663 26.0932 2.06634 26.1719 2.00456C26.9961 1.35746 28.0288 0.546682 29.2554 0.214567ZM30.8464 6.21901C30.6144 6.37401 30.3088 6.60935 29.7318 7.05809L8.79587 23.3416C7.2584 24.5374 6.97209 24.7941 6.77918 25.0549C6.55591 25.3567 6.38959 25.6968 6.28838 26.0584C6.20094 26.3708 6.17412 26.7544 6.17412 28.7021V51.0352C6.17412 52.815 6.17652 53.9641 6.24798 54.8387C6.3165 55.6773 6.4328 55.9882 6.51057 56.1409C6.80652 56.7217 7.27874 57.1939 7.85957 57.4899C8.01219 57.5676 8.3231 57.6839 9.16168 57.7524C10.0363 57.8239 11.1855 57.8263 12.9652 57.8263H48.7726C50.5523 57.8263 51.7015 57.8239 52.5761 57.7524C53.4147 57.6839 53.7256 57.5676 53.8782 57.4899C54.459 57.1939 54.9313 56.7217 55.2272 56.1409C55.305 55.9882 55.4213 55.6773 55.4898 54.8387C55.5612 53.9641 55.5636 52.815 55.5636 51.0352V28.7021C55.5636 26.7544 55.5368 26.3708 55.4494 26.0584C55.3482 25.6968 55.1819 25.3567 54.9586 25.0549C54.7657 24.7941 54.4794 24.5374 52.9419 23.3416L32.006 7.05809C31.429 6.60935 31.1234 6.37401 30.8914 6.21901C30.8835 6.21376 30.876 6.20879 30.8689 6.20409C30.8617 6.20879 30.8542 6.21376 30.8464 6.21901ZM15.4347 48.5658C15.4347 46.8609 16.8167 45.4789 18.5215 45.4789H43.2163C44.9211 45.4789 46.3031 46.8609 46.3031 48.5658C46.3031 50.2706 44.9211 51.6526 43.2163 51.6526H18.5215C16.8167 51.6526 15.4347 50.2706 15.4347 48.5658Z" fill="currentcolor"></path>
  </symbol>
  <symbol fill="none" xmlns="http://www.w3.org/2000/svg" viewBox="0 0 61 64" id="user">
    <path fill-rule="evenodd" clip-rule="evenodd" d="M30.681 6.4C24.4954 6.4 19.481 11.4144 19.481 17.6C19.481 23.7856 24.4954 28.8 30.681 28.8C36.8666 28.8 41.881 23.7856 41.881 17.6C41.881 11.4144 36.8666 6.4 30.681 6.4ZM13.081 17.6C13.081 7.87978 20.9608 0 30.681 0C40.4012 0 48.281 7.87978 48.281 17.6C48.281 27.3202 40.4012 35.2 30.681 35.2C20.9608 35.2 13.081 27.3202 13.081 17.6ZM30.681 44.8C21.5961 44.8 13.4986 49.1817 8.32534 56.0282C8.00886 56.447 7.76666 56.768 7.5652 57.05C7.41224 57.2641 7.30786 57.4213 7.23518 57.5405C7.71078 57.5948 8.38845 57.6 9.64818 57.6H51.7139C52.9736 57.6 53.6513 57.5948 54.1269 57.5405C54.0542 57.4213 53.9498 57.2641 53.7968 57.05C53.5954 56.768 53.3532 56.447 53.0367 56.0282C47.8635 49.1817 39.7659 44.8 30.681 44.8ZM3.2191 52.1699C9.53258 43.8143 19.4774 38.4 30.681 38.4C41.8846 38.4 51.8295 43.8143 58.1429 52.1699C58.1715 52.2077 58.2002 52.2456 58.2289 52.2837C58.7718 53.0015 59.3538 53.7713 59.7698 54.5138C60.2732 55.4126 60.6464 56.4524 60.6233 57.717C60.6047 58.7335 60.2967 59.685 59.9227 60.4364C59.5487 61.1878 58.9752 62.0071 58.1753 62.6348C57.1087 63.4718 55.9474 63.7681 54.9158 63.8919C54.0107 64.0004 52.9381 64.0002 51.8597 64C51.8111 64 51.7625 64 51.7139 64H9.64818C9.59956 64 9.55095 64 9.50235 64C8.42396 64.0002 7.35138 64.0004 6.44629 63.8919C5.41465 63.7681 4.25335 63.4718 3.18671 62.6348C2.38689 62.0071 1.81336 61.1878 1.43936 60.4364C1.06536 59.685 0.757371 58.7335 0.738781 57.717C0.715655 56.4524 1.0888 55.4126 1.59228 54.5138C2.00822 53.7713 2.59027 53.0015 3.1331 52.2837C3.16189 52.2456 3.19056 52.2077 3.2191 52.1699Z" fill="currentcolor"></path>
  </symbol>
</svg>